REM DIRINDEX 1\2\4,1\2\5,1\3\6,1\3\7,1\3\8
REM DIRNAME folder01,folder02,folder03,folder04,folder05,folder06,folder07,folder08
TITLE ""
FILE "LV4_078_WORDS.mp3" MP3
  TRACK 01 AUDIO
    TITLE "0:"
    INDEX 01 00:00:00
  TRACK 02 AUDIO
    TITLE "6:cjc094_2746"
    INDEX 01 00:00:03
  TRACK 03 AUDIO
    TITLE "0:"
    INDEX 01 00:01:46
  TRACK 04 AUDIO
    TITLE "7:cjc094_2747"
    INDEX 01 00:02:24
  TRACK 05 AUDIO
    TITLE "0:"
    INDEX 01 00:03:23
  TRACK 06 AUDIO
    TITLE "8:cjc094_2748"
    INDEX 01 00:03:35
  TRACK 07 AUDIO
    TITLE "0:"
    INDEX 01 00:05:34
  TRACK 08 AUDIO
    TITLE "7:cjc094_2749"
    INDEX 01 00:05:73
  TRACK 09 AUDIO
    TITLE "0:"
    INDEX 01 00:07:21
  TRACK 10 AUDIO
    TITLE "8:cjc094_2750"
    INDEX 01 00:07:35
  TRACK 11 AUDIO
    TITLE "0:"
    INDEX 01 00:10:41
  TRACK 12 AUDIO
    TITLE "7:cjc094_2751"
    INDEX 01 00:11:13
  TRACK 13 AUDIO
    TITLE "0:"
    INDEX 01 00:12:40
  TRACK 14 AUDIO
    TITLE "8:cjc094_2752"
    INDEX 01 00:12:48
  TRACK 15 AUDIO
    TITLE "0:"
    INDEX 01 00:14:54
  TRACK 16 AUDIO
    TITLE "7:cjc094_2753"
    INDEX 01 00:15:23
  TRACK 17 AUDIO
    TITLE "0:"
    INDEX 01 00:16:26
  TRACK 18 AUDIO
    TITLE "8:cjc094_2754"
    INDEX 01 00:16:36
  TRACK 19 AUDIO
    TITLE "0:"
    INDEX 01 00:17:33
  TRACK 20 AUDIO
    TITLE "7:cjc094_2755"
    INDEX 01 00:18:03
  TRACK 21 AUDIO
    TITLE "0:"
    INDEX 01 00:19:05
  TRACK 22 AUDIO
    TITLE "8:cjc094_2756"
    INDEX 01 00:19:22
  TRACK 23 AUDIO
    TITLE "0:"
    INDEX 01 00:20:18
  TRACK 24 AUDIO
    TITLE "7:cjc094_2757"
    INDEX 01 00:20:65
  TRACK 25 AUDIO
    TITLE "0:"
    INDEX 01 00:22:15
  TRACK 26 AUDIO
    TITLE "8:cjc094_2758"
    INDEX 01 00:22:25
  TRACK 27 AUDIO
    TITLE "0:"
    INDEX 01 00:23:65
  TRACK 28 AUDIO
    TITLE "7:cjc094_2759"
    INDEX 01 00:24:35
  TRACK 29 AUDIO
    TITLE "0:"
    INDEX 01 00:25:45
  TRACK 30 AUDIO
    TITLE "8:cjc094_2760"
    INDEX 01 00:25:52
  TRACK 31 AUDIO
    TITLE "0:"
    INDEX 01 00:28:37
  TRACK 32 AUDIO
    TITLE "7:cjc094_2761"
    INDEX 01 00:29:01
  TRACK 33 AUDIO
    TITLE "0:"
    INDEX 01 00:29:68
  TRACK 34 AUDIO
    TITLE "8:cjc094_2762"
    INDEX 01 00:30:05
  TRACK 35 AUDIO
    TITLE "0:"
    INDEX 01 00:32:29
  TRACK 36 AUDIO
    TITLE "7:cjc094_2763"
    INDEX 01 00:33:03
  TRACK 37 AUDIO
    TITLE "0:"
    INDEX 01 00:34:43
  TRACK 38 AUDIO
    TITLE "8:cjc094_2764"
    INDEX 01 00:34:53
  TRACK 39 AUDIO
    TITLE "0:"
    INDEX 01 00:36:17
  TRACK 40 AUDIO
    TITLE "7:cjc094_2765"
    INDEX 01 00:36:62
  TRACK 41 AUDIO
    TITLE "0:"
    INDEX 01 00:37:69
  TRACK 42 AUDIO
    TITLE "8:cjc094_2766"
    INDEX 01 00:38:06
  TRACK 43 AUDIO
    TITLE "0:"
    INDEX 01 00:39:23
  TRACK 44 AUDIO
    TITLE "7:cjc094_2767"
    INDEX 01 00:39:68
  TRACK 45 AUDIO
    TITLE "0:"
    INDEX 01 00:41:06
  TRACK 46 AUDIO
    TITLE "8:cjc094_2768"
    INDEX 01 00:41:20
  TRACK 47 AUDIO
    TITLE "0:"
    INDEX 01 00:43:25
  TRACK 48 AUDIO
    TITLE "7:cjc094_2769"
    INDEX 01 00:44:01
  TRACK 49 AUDIO
    TITLE "0:"
    INDEX 01 00:45:08
  TRACK 50 AUDIO
    TITLE "8:cjc094_2770"
    INDEX 01 00:45:20
  TRACK 51 AUDIO
    TITLE "0:"
    INDEX 01 00:47:23
  TRACK 52 AUDIO
    TITLE "7:cjc094_2771"
    INDEX 01 00:48:00
  TRACK 53 AUDIO
    TITLE "0:"
    INDEX 01 00:49:14
  TRACK 54 AUDIO
    TITLE "8:cjc094_2772"
    INDEX 01 00:49:29
  TRACK 55 AUDIO
    TITLE "0:"
    INDEX 01 00:50:50
  TRACK 56 AUDIO
    TITLE "7:cjc094_2773"
    INDEX 01 00:51:22
  TRACK 57 AUDIO
    TITLE "0:"
    INDEX 01 00:52:43
  TRACK 58 AUDIO
    TITLE "8:cjc094_2774"
    INDEX 01 00:52:57
  TRACK 59 AUDIO
    TITLE "0:"
    INDEX 01 00:54:36
  TRACK 60 AUDIO
    TITLE "7:cjc094_2775"
    INDEX 01 00:55:10
  TRACK 61 AUDIO
    TITLE "0:"
    INDEX 01 00:56:10
  TRACK 62 AUDIO
    TITLE "8:cjc094_2776"
    INDEX 01 00:56:27
  TRACK 63 AUDIO
    TITLE "0:"
    INDEX 01 00:57:23
  TRACK 64 AUDIO
    TITLE "7:cjc094_2777"
    INDEX 01 00:57:66
  TRACK 65 AUDIO
    TITLE "0:"
    INDEX 01 00:58:67
  TRACK 66 AUDIO
    TITLE "8:cjc094_2778"
    INDEX 01 00:59:06
  TRACK 67 AUDIO
    TITLE "0:"
    INDEX 01 01:01:15
  TRACK 68 AUDIO
    TITLE "7:cjc094_2779"
    INDEX 01 01:01:66
  TRACK 69 AUDIO
    TITLE "0:"
    INDEX 01 01:02:71
  TRACK 70 AUDIO
    TITLE "8:cjc094_2780"
    INDEX 01 01:03:04
  TRACK 71 AUDIO
    TITLE "0:"
    INDEX 01 01:04:23
